<svg height="512pt" viewBox="0 0 512 512" width="512pt" xmlns="http://www.w3.org/2000/svg"><path d="m256 30c-124.199219 0-226 101.800781-226 226s101.800781 226 226 226 226-101.800781 226-226-101.800781-226-226-226zm0 422c-107.402344 0-196-88.597656-196-196s88.597656-196 196-196 196 88.597656 196 196-88.597656 196-196 196zm0 0" fill="#ff641a"/><path d="m0 241h120v30h-120zm0 0" fill="#ff641a"/><path d="m392 241h120v30h-120zm0 0" fill="#f03800"/><path d="m241 0h30v120h-30zm0 0" fill="#ff641a"/><path d="m241 392h30v120h-30zm0 0" fill="#ff641a"/><path d="m90 512h-90v-90h30v60h60zm0 0" fill="#4a696f"/><path d="m30 90h-30v-90h90v30h-60zm0 0" fill="#4a696f"/><path d="m512 512h-90v-30h60v-60h30zm0 0" fill="#293939"/><path d="m512 90h-30v-60h-60v-30h90zm0 0" fill="#293939"/><g fill="#f03800"><path d="m482 256c0 124.199219-101.800781 226-226 226v-30c107.402344 0 196-88.597656 196-196s-88.597656-196-196-196v-30c124.199219 0 226 101.800781 226 226zm0 0"/><path d="m256 0h15v120h-15zm0 0"/><path d="m256 392h15v120h-15zm0 0"/></g><path d="m256 90c-90.902344 0-166 75.097656-166 166s75.097656 166 166 166 166-75.097656 166-166-75.097656-166-166-166zm0 0" fill="#ff641a"/><path d="m256 422v-332c90.902344 0 166 75.097656 166 166s-75.097656 166-166 166zm0 0" fill="#f03800"/><path d="m392 256c0 74.398438-61.601562 136-136 136s-136-61.601562-136-136 61.601562-136 136-136 136 61.601562 136 136zm0 0" fill="#e6ffff"/><path d="m392 256c0 74.398438-61.601562 136-136 136v-272c74.398438 0 136 61.601562 136 136zm0 0" fill="#d9f2ff"/><path d="m256 151c-57.898438 0-105 47.101562-105 105s47.101562 105 105 105 105-47.101562 105-105-47.101562-105-105-105zm0 0" fill="#76e2f8"/><path d="m361 256c0 57.898438-47.101562 105-105 105v-210c57.898438 0 105 47.101562 105 105zm0 0" fill="#4bb9ec"/><path d="m331 256c0 41.398438-33.601562 75-75 75s-75-33.601562-75-75 33.601562-75 75-75 75 33.601562 75 75zm0 0" fill="#4bb9ec"/><path d="m331 256c0 41.398438-33.601562 75-75 75v-150c41.398438 0 75 33.601562 75 75zm0 0" fill="#0095ff"/><path d="m166 241h180v30h-180zm0 0" fill="#76e2f8"/><path d="m256 241h90v30h-90zm0 0" fill="#4bb9ec"/><path d="m256 151c-31.199219 0-45 52.800781-45 105s13.800781 105 45 105 45-52.800781 45-105-13.800781-105-45-105zm0 178.5c-5.699219-6.902344-15-32.101562-15-73.5s9.300781-66.597656 15-73.5c5.699219 6.902344 15 32.101562 15 73.5s-9.300781 66.597656-15 73.5zm0 0" fill="#76e2f8"/><path d="m301 256c0 52.199219-13.800781 105-45 105v-31.5c5.699219-6.902344 15-32.101562 15-73.5s-9.300781-66.597656-15-73.5v-31.5c31.199219 0 45 52.800781 45 105zm0 0" fill="#4bb9ec"/></svg>