<svg height="512pt" viewBox="0 -16 512 512" width="512pt" xmlns="http://www.w3.org/2000/svg"><path d="m61 0h390v300h-390zm0 0" fill="#e6ffff"/><path d="m256 0h195v300h-195zm0 0" fill="#d9f2ff"/><path d="m421 30v76.199219l-30 48-135 49.800781-97.800781 36-67.199219-30v-180zm0 0" fill="#76e2f8"/><path d="m421 30v76.199219l-30 48-135 49.800781v-174zm0 0" fill="#4bb9ec"/><path d="m391 64.199219-70.800781 99 33.601562 106.800781 67.199219-60v-103.800781zm0 0" fill="#6b0"/><path d="m166 150c-24.8125 0-45-20.1875-45-45s20.1875-45 45-45 45 20.1875 45 45-20.1875 45-45 45zm0 0" fill="#ffda2d"/><path d="m512 330v150h-512v-150h61l15 30 15-30h30l15 60 15-60h30l15 30 15-30h30l15 60 15-60h30l15 30 15-30h30l15 60 15-60h30l15 30 15-30zm0 0" fill="#ffda2d"/><path d="m512 330v150h-256v-90l15-60h30l15 30 15-30h30l15 60 15-60h30l15 30 15-30zm0 0" fill="#fdbf00"/><g fill="#4a696f"><path d="m61 330h30v60h-30zm0 0"/><path d="m121 330h30v90h-30zm0 0"/><path d="m181 330h30v60h-30zm0 0"/><path d="m241 330h30v90h-30zm0 0"/></g><path d="m301 330h30v60h-30zm0 0" fill="#384949"/><path d="m361 330h30v90h-30zm0 0" fill="#384949"/><path d="m421 330h30v60h-30zm0 0" fill="#384949"/><path d="m256 330h15v90h-15zm0 0" fill="#384949"/><path d="m421 210v60h-330v-60h97.199219l67.800781-94.800781 15-21 82.800781 115.800781zm0 0" fill="#b9dd39"/><path d="m421 210v60h-165v-154.800781l15-21 82.800781 115.800781zm0 0" fill="#90cc1c"/></svg>