<svg height="512pt" viewBox="0 -61 512 512" width="512pt" xmlns="http://www.w3.org/2000/svg"><path d="m30 0h452v360h-452zm0 0" fill="#384949"/><path d="m256 0h226v360h-226zm0 0" fill="#293939"/><path d="m60 30h392v270h-392zm0 0" fill="#76e2f8"/><path d="m256 30h196v270h-196zm0 0" fill="#4bb9ec"/><g fill="#e6ffff"><path d="m512 330v15c0 24.898438-20.097656 45-45 45h-422c-24.902344 0-45-20.101562-45-45v-15zm0 0"/><path d="m241 60v90h181v-90zm0 0"/><path d="m241 180v90h181v-90zm0 0"/><path d="m211 270h-121v-210h121zm0 0"/></g><path d="m256 60h166v90h-166zm0 0" fill="#d9f2ff"/><path d="m256 180h166v90h-166zm0 0" fill="#d9f2ff"/><path d="m512 330v15c0 24.898438-20.097656 45-45 45h-211v-60zm0 0" fill="#d9f2ff"/></svg>