<svg height="512pt" viewBox="0 0 512 512" width="512pt" xmlns="http://www.w3.org/2000/svg"><path d="m452 90v362h-452v-362l30-30h392zm0 0" fill="#e6ffff"/><path d="m452 90v362h-226v-392h196zm0 0" fill="#d9f2ff"/><path d="m0 0h331v90h-331zm0 0" fill="#4a696f"/><path d="m331 0h121v90h-121l-30-45zm0 0" fill="#4bb9ec"/><path d="m226 0h105v90h-105zm0 0" fill="#384949"/><path d="m121 182v330h391v-330zm0 0" fill="#ff641a"/><path d="m316 182h196v330h-196zm0 0" fill="#f03800"/><path d="m316 302.597656-45-26.996094v142.796876l45-27 75.097656-44.398438zm0 0" fill="#e6ffff"/><path d="m211 302h-30v-60h60v30h-30zm0 0" fill="#4a696f"/><path d="m452 302h-30v-30h-30v-30h60zm0 0" fill="#384949"/><path d="m452 452h-60v-30h30v-30h30zm0 0" fill="#384949"/><path d="m241 452h-60v-60h30v30h30zm0 0" fill="#4a696f"/><path d="m391.097656 347-75.097656 44.398438v-88.800782zm0 0" fill="#d9f2ff"/></svg>