<svg height="512pt" viewBox="0 -19 512 512" width="512pt" xmlns="http://www.w3.org/2000/svg"><path d="m30 83.101562h452v360h-452zm0 0" fill="#384949"/><path d="m256 83.101562h226v360h-226zm0 0" fill="#293939"/><path d="m452 113.101562v270h-62.5l-28.5-15h-210l-28.5 15h-62.5v-270zm0 0" fill="#76e2f8"/><path d="m452 113.101562v270h-62.5l-28.5-15h-105v-255zm0 0" fill="#4bb9ec"/><path d="m512 413.101562v15c0 24.898438-20.097656 45-45 45h-422c-24.902344 0-45-20.101562-45-45v-15zm0 0" fill="#e6ffff"/><path d="m512 413.101562v15c0 24.898438-20.097656 45-45 45h-211v-60zm0 0" fill="#d9f2ff"/><path d="m389.5 383.101562h-267c6.902344-34.199218 37.199219-60 73.5-60 8.402344 0 15-6.601562 15-15v-45h90v45c0 3.898438 1.5 7.800782 4.5 10.5 2.699219 3 6.601562 4.5 10.5 4.5 36.300781 0 66.597656 25.800782 73.5 60zm0 0" fill="#fff7cc"/><path d="m389.5 383.101562h-133.5v-120h45v45c0 3.898438 1.5 7.800782 4.5 10.5 2.699219 3 6.601562 4.5 10.5 4.5 36.300781 0 66.597656 25.800782 73.5 60zm0 0" fill="#ffca80"/><path d="m191.867188 144.582031c-3 2.597657-70.867188 25.847657-70.867188 103.519531v21.652344l100.269531-37.605468zm0 0" fill="#ff641a"/><path d="m320.132812 144.582031-29.402343 87.566407 100.269531 37.605468v-21.652344c0-77.574218-67.863281-100.917968-70.867188-103.519531zm0 0" fill="#f03800"/><path d="m329.800781 158.101562c0 26.097657-3 39.597657-12.601562 75l-46.199219 30h-30l-45.898438-30c-8.699218-31.800781-12.601562-48-12.300781-75 .300781-50.101562 20.097657-96 61.800781-144.902343l11.398438-13.199219 11.402344 13.199219c41.699218 48.902343 62.097656 94.800781 62.398437 144.902343zm0 0" fill="#ff9100"/><path d="m329.800781 158.101562c0 26.097657-3 39.597657-12.601562 75l-46.199219 30h-15v-263.101562l11.402344 13.199219c41.699218 48.902343 62.097656 94.800781 62.398437 144.902343zm0 0" fill="#ff641a"/><path d="m317.199219 233.101562c-4.199219 15-9.300781 34.199219-16.199219 60h-90c-6.597656-25.800781-12-44.699218-15.902344-60zm0 0" fill="#ff641a"/><path d="m317.199219 233.101562c-4.199219 15-9.300781 34.199219-16.199219 60h-45v-60zm0 0" fill="#f03800"/><path d="m241 113.101562h30v30h-30zm0 0" fill="#e6ffff"/><path d="m256 113.101562h15v30h-15zm0 0" fill="#d9f2ff"/></svg>