<svg height="512pt" viewBox="0 0 512 512" width="512pt" xmlns="http://www.w3.org/2000/svg"><path d="m211 421h90v91h-90zm0 0" fill="#d9f2ff"/><path d="m256 421h45v91h-45zm0 0" fill="#cdf"/><path d="m421 165c0 91.199219-73.800781 165-165 165s-165-73.800781-165-165 73.800781-165 165-165 165 73.800781 165 165zm0 0" fill="#ffda2d"/><path d="m421 165c0 91.199219-73.800781 165-165 165v-330c91.199219 0 165 73.800781 165 165zm0 0" fill="#fdbf00"/><path d="m331 210-30 30h-90l-30-30 75-138.601562zm0 0" fill="#fff7cc"/><path d="m331 210-30 30h-45v-168.601562zm0 0" fill="#ffca80"/><path d="m331 210v180l-30 31h-90l-30-31v-180zm0 0" fill="#ff9100"/><path d="m331 210v180l-30 31h-45v-211zm0 0" fill="#ff641a"/><g fill="#ffda2d"><path d="m0 150h61v30h-61zm0 0"/><path d="m451 150h61v30h-61zm0 0"/><path d="m42.660156 305.492188-15-25.984376 51.957032-30 15 25.984376zm0 0"/><path d="m432.382812 80.492188-15-25.984376 51.957032-30 15 25.984376zm0 0"/><path d="m79.617188 80.492188-51.957032-30 15-25.984376 51.957032 30zm0 0"/><path d="m469.339844 305.492188-51.957032-30 15-25.984376 51.957032 30zm0 0"/></g><path d="m241 270h30v151h-30zm0 0" fill="#ff641a"/><path d="m256 270h15v151h-15zm0 0" fill="#f03800"/><path d="m181 390h150v61h-150zm0 0" fill="#4a696f"/><path d="m256 390h75v61h-75zm0 0" fill="#384949"/></svg>