<svg height="512pt" viewBox="0 0 512 512" width="512pt" xmlns="http://www.w3.org/2000/svg"><path d="m31 271h30v30h-30zm0 0" fill="#4a696f"/><path d="m211 451h30v30h-30zm0 0" fill="#4a696f"/><path d="m271 451h30v30h-30zm0 0" fill="#384949"/><path d="m31 211h30v30h-30zm0 0" fill="#4a696f"/><path d="m451 211h30v30h-30zm0 0" fill="#384949"/><path d="m451 271h30v30h-30zm0 0" fill="#384949"/><path d="m211 31h30v30h-30zm0 0" fill="#4a696f"/><path d="m271 31h30v30h-30zm0 0" fill="#384949"/><g fill="#4a696f"><path d="m31 76h30v105h-30zm0 0"/><path d="m76 31h105v30h-105zm0 0"/><path d="m31 331h30v105h-30zm0 0"/><path d="m76 451h105v30h-105zm0 0"/></g><path d="m331 451h105v30h-105zm0 0" fill="#384949"/><path d="m451 331h30v105h-30zm0 0" fill="#384949"/><path d="m331 31h105v30h-105zm0 0" fill="#384949"/><path d="m451 76h30v105h-30zm0 0" fill="#384949"/><path d="m512 512h-91v-91h91zm0 0" fill="#4bb9ec"/><path d="m91 512h-91v-91h91zm0 0" fill="#76e2f8"/><path d="m512 91h-91v-91h91zm0 0" fill="#4bb9ec"/><path d="m91 91h-91v-91h91zm0 0" fill="#76e2f8"/><path d="m91 211v210h210v-210zm0 0" fill="#ff641a"/><path d="m196 211h105v210h-105zm0 0" fill="#f03800"/><path d="m151 151v210h210v-210zm0 0" fill="#76e2f8"/><path d="m256 151h105v210h-105zm0 0" fill="#4bb9ec"/><path d="m211 91v210h210v-210zm0 0" fill="#ffda2d"/><path d="m316 91h105v210h-105zm0 0" fill="#fdbf00"/></svg>