<svg height="512pt" viewBox="0 -31 512 512" width="512pt" xmlns="http://www.w3.org/2000/svg"><path d="m391 300h-30l-150 150h-181v-150h-30l196-300zm0 0" fill="#ff641a"/><path d="m391 300h-30l-150 150h-15v-450zm0 0" fill="#f03800"/><path d="m409 227.101562-48 192.898438-30 30h-120v-120h-42.898438l147.898438-220.5zm0 0" fill="#ff9100"/><path d="m409 227.101562-48 192.898438-30 30h-15v-340.5zm0 0" fill="#ff641a"/><path d="m512 360h-31v90h-60l-15-30-15 30h-60v-90h-30l105-159.902344zm0 0" fill="#ffb64c"/><path d="m391 390h30v60h-30zm0 0" fill="#4a696f"/><path d="m391 330h30v30h-30zm0 0" fill="#4a696f"/><path d="m512 360h-31v90h-60l-15-30v-219.902344zm0 0" fill="#ff9100"/><g fill="#384949"><path d="m406 330h15v30h-15zm0 0"/><path d="m406 390h15v60h-15zm0 0"/></g></svg>