<svg height="512pt" viewBox="0 0 512 512" width="512pt" xmlns="http://www.w3.org/2000/svg"><path d="m512 0v360l-30 31h-452l-30-31v-360zm0 0" fill="#384949"/><path d="m512 0v360l-30 31h-226v-391zm0 0" fill="#293939"/><path d="m211 407h90v90h-90zm0 0" fill="#d9f2ff"/><path d="m256 407h45v90h-45zm0 0" fill="#cdf"/><path d="m151 482h210v30h-210zm0 0" fill="#e6ffff"/><path d="m0 360h512v62h-512zm0 0" fill="#e6ffff"/><path d="m256 482h105v30h-105zm0 0" fill="#d9f2ff"/><path d="m256 360h256v62h-256zm0 0" fill="#d9f2ff"/><path d="m30 30h121v60h-121zm0 0" fill="#4a696f"/><path d="m151 30h105v60h-105zm0 0" fill="#4bb9ec"/><path d="m30 90h226v240h-226zm0 0" fill="#e6ffff"/><path d="m256 30h226v300h-226zm0 0" fill="#fdbf00"/><path d="m166 195h180v30h-180zm0 0" fill="#76e2f8"/><path d="m256 195h90v30h-90zm0 0" fill="#4bb9ec"/><path d="m331 264.273438v-108.546876l108.546875 54.273438zm0 0" fill="#4bb9ec"/><path d="m181 264.273438-108.546875-54.273438 108.546875-54.273438zm0 0" fill="#76e2f8"/></svg>