<svg height="512pt" viewBox="0 -31 512 512" width="512pt" xmlns="http://www.w3.org/2000/svg"><path d="m512 60v390h-512v-390l30-30h452zm0 0" fill="#e6ffff"/><path d="m512 60v390h-256v-420h226zm0 0" fill="#d9f2ff"/><path d="m30 90h211v330h-211zm0 0" fill="#ff641a"/><path d="m271 90h211v330h-211zm0 0" fill="#4bb9ec"/><g fill="#e6ffff"><path d="m106 210c-24.8125 0-46-20.1875-46-45s21.1875-45 46-45 45 20.1875 45 45-20.1875 45-45 45zm0 0"/><path d="m60 240h91v30h-91zm0 0"/><path d="m60 300h91v30h-91zm0 0"/><path d="m60 360h151v30h-151zm0 0"/></g><path d="m301 300h151v30h-151zm0 0" fill="#d9f2ff"/><path d="m301 360h151v30h-151zm0 0" fill="#d9f2ff"/><path d="m452 270h-151v-150h151zm0 0" fill="#d9f2ff"/><path d="m181 240h30v30h-30zm0 0" fill="#e6ffff"/><path d="m181 300h30v30h-30zm0 0" fill="#e6ffff"/><path d="m0 0h392v60h-392zm0 0" fill="#4a696f"/><path d="m392 0h120v60h-120l-30-15zm0 0" fill="#4bb9ec"/><path d="m256 0h136v60h-136zm0 0" fill="#384949"/></svg>