<svg height="512pt" viewBox="0 0 512 512" width="512pt" xmlns="http://www.w3.org/2000/svg"><path d="m241 226h30v120h-30zm0 0" fill="#4a696f"/><path d="m256 226h15v120h-15zm0 0" fill="#384949"/><path d="m452 271v75h-30v-45h-332v45h-30v-75zm0 0" fill="#4a696f"/><path d="m452 271v75h-30v-45h-166v-30zm0 0" fill="#384949"/><path d="m422 60v181h-332v-181l30-30h272zm0 0" fill="#e6ffff"/><path d="m422 60v181h-166v-211h136zm0 0" fill="#d9f2ff"/><path d="m332 0h90v60h-90l-30-30zm0 0" fill="#4bb9ec"/><path d="m90 0h242v60h-242zm0 0" fill="#4a696f"/><path d="m256 0h76v60h-76zm0 0" fill="#384949"/><path d="m150 391v121h-150v-121l30-30h90zm0 0" fill="#ffda2d"/><path d="m150 391v121h-75v-151h45zm0 0" fill="#fdbf00"/><path d="m0 331h150v60h-150zm0 0" fill="#fdbf00"/><path d="m75 331h75v60h-75zm0 0" fill="#ff9100"/><path d="m332 391v121h-152v-121l30-30h92zm0 0" fill="#ffda2d"/><path d="m332 391v121h-76v-151h46zm0 0" fill="#fdbf00"/><path d="m180 331h152v60h-152zm0 0" fill="#fdbf00"/><path d="m256 331h76v60h-76zm0 0" fill="#ff9100"/><path d="m512 391v121h-150v-121l30-30h90zm0 0" fill="#ffda2d"/><path d="m512 391v121h-75v-151h45zm0 0" fill="#fdbf00"/><path d="m362 331h150v60h-150zm0 0" fill="#fdbf00"/><path d="m437 331h75v60h-75zm0 0" fill="#ff9100"/></svg>