<svg height="512pt" viewBox="0 0 512 512" width="512pt" xmlns="http://www.w3.org/2000/svg"><path d="m452 90v362h-452v-362l30-30h392zm0 0" fill="#d9f2ff"/><path d="m452 90v362h-226v-392h196zm0 0" fill="#cdf"/><path d="m0 0h331v90h-331zm0 0" fill="#4a696f"/><path d="m331 0h121v90h-121l-30-45zm0 0" fill="#4bb9ec"/><path d="m226 0h105v90h-105zm0 0" fill="#384949"/><path d="m121 182v330h391v-330zm0 0" fill="#76e2f8"/><path d="m316 182h196v330h-196zm0 0" fill="#4bb9ec"/><path d="m181 422h30v30h-30zm0 0" fill="#4a696f"/><path d="m422 422h30v30h-30zm0 0" fill="#384949"/><path d="m422 242h30v30h-30zm0 0" fill="#384949"/><path d="m181 242h30v30h-30zm0 0" fill="#4a696f"/><path d="m449.898438 339.199219c-2.398438-3.898438-60.097657-97.199219-133.898438-97.199219s-130.5 93.300781-132.898438 97.199219l-4.503906 7.800781 4.503906 7.800781c2.398438 3.898438 59.097657 97.199219 132.898438 97.199219s131.5-93.300781 133.898438-97.199219l4.503906-7.800781zm0 0" fill="#e6ffff"/><path d="m454.402344 347-4.503906 7.800781c-2.398438 3.898438-60.097657 97.199219-133.898438 97.199219v-210c73.800781 0 131.5 93.300781 133.898438 97.199219zm0 0" fill="#d9f2ff"/><path d="m316 302c-24.902344 0-45 20.097656-45 45 0 24.898438 20.097656 45 45 45s45-20.101562 45-45c0-24.902344-20.097656-45-45-45zm0 0" fill="#76e2f8"/><path d="m361 347c0 24.898438-20.097656 45-45 45v-90c24.902344 0 45 20.097656 45 45zm0 0" fill="#4bb9ec"/><path d="m331 347c0 8.398438-6.597656 15-15 15s-15-6.601562-15-15c0-8.402344 6.597656-15 15-15s15 6.597656 15 15zm0 0" fill="#4a696f"/><path d="m331 347c0 8.398438-6.597656 15-15 15v-30c8.402344 0 15 6.597656 15 15zm0 0" fill="#384949"/></svg>